# xmcd
#
# Track frame offsets:
#	150
#	13980
#	34291
#	56899
#	74103
#	90132
#	104313
#	123598
#	146940
#	169175
#	186230
#
# Disc length: 2730 seconds
#
# Revision: 2
# Processed by: cddbd v1.5.2PL0 Copyright (c) Steve Scherf et al.
# Submitted via: EasyCDDAExtractor 16.0.6.1
#
DISCID=a80aa80b
DTITLE=Poco - C-128 Running Horse
DYEAR=2002
DGENRE=Folk/Rock
TTITLE0=One Tear at a Time
TTITLE1=Every Time I Hear That Train
TTITLE2=If Your Heart Needs a Hand
TTITLE3=Never Loved...Never Hurt Like This
TTITLE4=Forever
TTITLE5=Never Get Enough
TTITLE6=If You Can't Stand to Lose
TTITLE7=I Can Only Imagine
TTITLE8=Shake It
TTITLE9=That's What Love is All About
TTITLE10=Running Horse
EXTD=YEAR: 2002
EXTT0=
EXTT1=
EXTT2=
EXTT3=
EXTT4=
EXTT5=
EXTT6=
EXTT7=
EXTT8=
EXTT9=
EXTT10=
PLAYORDER=
